# xmcd
#
# Track frame offsets:
#	150
#	18654
#	36903
#	59430
#	74532
#	88860
#	104655
#	121986
#	140844
#	159891
#	174579
#	192453
#
# Disc length: 2810 seconds
#
# Revision: 1
# Processed by: cddbd v1.5.2PL0 Copyright (c) Steve Scherf et al.
# Submitted via: audiograbber 1.83.01
#
DISCID=b40af80c
DTITLE=Darius Rucker - True Believers
DYEAR=2013
DGENRE=Country
TTITLE0=True Believers
TTITLE1=Miss You
TTITLE2=Wagon Wheel
TTITLE3=Love Without You (Feat Sheryl Crow)
TTITLE4=Radio
TTITLE5=Lost In You
TTITLE6=I Will Love You Still (Feat Mallary Hope)
TTITLE7=Take Me Home
TTITLE8=Shine
TTITLE9=Heartbreak Road
TTITLE10=Leavin' The Light On
TTITLE11=Lie To Me
EXTD=
EXTT0=
EXTT1=
EXTT2=
EXTT3=
EXTT4=
EXTT5=
EXTT6=
EXTT7=
EXTT8=
EXTT9=
EXTT10=
EXTT11=
PLAYORDER=
